# xmcd
#
# Track frame offsets:
#	150
#	31996
#	56922
#	79928
#	99103
#	112679
#	141459
#	154732
#	171708
#	189949
#
# Disc length: 2823
#
# Revision: 1
# Processed by: cddbd v1.5.1PL0 Copyright (c) Steve Scherf et al.
# Submitted via: CDex 1.51
# Normalized: r0:DSETVAR1,TDELIM( - )
#
DISCID=800b050a
DTITLE=Various Artist - Pre-Dinner Chilled Cocktail Grooves
DYEAR=2003
DGENRE=Jazz
TTITLE0=Midbar Sinai - Angel Tears
TTITLE1=Very Well - Bertie Blackman
TTITLE2=New York City - The Peter Malik Group Feat. Norah Jones
TTITLE3=Moving On - Coffee Protection Society
TTITLE4=Bedtime Story - Coco
TTITLE5=Do You Love Me - Prokane
TTITLE6=Just Kiss Me - Rick Kelly
TTITLE7=You Are My One - Wah Wah Man Feat. Melanie Horsnell
TTITLE8=Romantic Hold Up - Grand Tourism
TTITLE9=Labanese Blonde - Thievery Corporation
EXTD=YEAR: 2003
EXTT0=
EXTT1=
EXTT2=
EXTT3=
EXTT4=
EXTT5=
EXTT6=
EXTT7=
EXTT8=
EXTT9=
PLAYORDER=
